<?xml version="1.0" standalone="no"?>
<!DOCTYPE svg PUBLIC "-//W3C//DTD SVG 1.1//EN" "https://www.w3.org/Graphics/SVG/1.1/DTD/svg11.dtd">

<svg width="800" height="600" version="1.1" xmlns="http://www.w3.org/2000/svg">
	<ellipse stroke="black" stroke-width="1" fill="none" cx="130.5" cy="104.5" rx="30" ry="30"/>
	<text x="125.5" y="110.5" font-family="Times New Roman" font-size="20">0</text>
	<ellipse stroke="black" stroke-width="1" fill="none" cx="130.5" cy="104.5" rx="24" ry="24"/>
	<ellipse stroke="black" stroke-width="1" fill="none" cx="317.5" cy="104.5" rx="30" ry="30"/>
	<text x="312.5" y="110.5" font-family="Times New Roman" font-size="20">1</text>
	<ellipse stroke="black" stroke-width="1" fill="none" cx="317.5" cy="239.5" rx="30" ry="30"/>
	<text x="312.5" y="245.5" font-family="Times New Roman" font-size="20">2</text>
	<ellipse stroke="black" stroke-width="1" fill="none" cx="130.5" cy="239.5" rx="30" ry="30"/>
	<text x="125.5" y="245.5" font-family="Times New Roman" font-size="20">3</text>
	<path stroke="black" stroke-width="1" fill="none" d="M 154.868,87.099 A 140.729,140.729 0 0 1 293.132,87.099"/>
	<polygon fill="black" stroke-width="1" points="293.132,87.099 288.62,78.814 283.707,87.525"/>
	<text x="221.5" y="59.5" font-family="Times New Roman" font-size="20">.</text>
	<path stroke="black" stroke-width="1" fill="none" d="M 336.618,127.434 A 88.775,88.775 0 0 1 336.618,216.566"/>
	<polygon fill="black" stroke-width="1" points="336.618,216.566 344.958,212.157 336.309,207.137"/>
	<text x="353.5" y="178.5" font-family="Times New Roman" font-size="20">.</text>
	<path stroke="black" stroke-width="1" fill="none" d="M 293.556,257.474 A 136.623,136.623 0 0 1 154.444,257.474"/>
	<polygon fill="black" stroke-width="1" points="154.444,257.474 158.784,265.851 163.875,257.244"/>
	<text x="221.5" y="297.5" font-family="Times New Roman" font-size="20">.</text>
	<path stroke="black" stroke-width="1" fill="none" d="M 113.814,214.704 A 99.821,99.821 0 0 1 113.814,129.296"/>
	<polygon fill="black" stroke-width="1" points="113.814,129.296 105.872,134.387 114.911,138.666"/>
	<text x="94.5" y="178.5" font-family="Times New Roman" font-size="20">.</text>
</svg>
